<svg width="569" height="641" xmlns="http://www.w3.org/2000/svg" xmlns:xlink="http://www.w3.org/1999/xlink" xml:space="preserve" overflow="hidden"><g transform="translate(-563 -889)"><g><path d="M565 1114 1128 1114 1128 1435.18C1128 1486.99 1085.99 1529 1034.16 1529L658.835 1529C607.012 1529 565 1486.99 565 1435.18Z" fill="#FFFFFF" fill-rule="evenodd" fill-opacity="1"/><path d="M658.835 966 666.787 966 666.787 990.331C666.787 1006.41 679.816 1019.44 695.888 1019.44L695.888 1019.44C711.96 1019.44 724.989 1006.41 724.989 990.331L724.989 966 966.843 966 966.843 990.331C966.843 1006.41 979.872 1019.44 995.944 1019.44L995.943 1019.44C1012.02 1019.44 1025.04 1006.41 1025.04 990.331L1025.04 966 1034.16 966C1085.99 966 1128 1008.03 1128 1059.87L1128 1114 565 1114 565 1059.87C565 1008.03 607.012 966 658.835 966Z" fill="#FF427D" fill-rule="evenodd" fill-opacity="1"/><path d="M966.84 965.589 1025 965.589 1025 989.906C1025 1005.97 1011.98 1019 995.92 1019L995.92 1019C979.86 1019 966.84 1005.97 966.84 989.905ZM667 965.589 725.159 965.589 725.159 989.906C725.159 1005.97 712.14 1019 696.08 1019L696.08 1019C680.019 1019 667 1005.97 667 989.905ZM995.92 893C1011.98 893 1025 906.026 1025 922.094L1025 965.589 966.84 965.589 966.84 922.094C966.84 906.026 979.86 893 995.92 893ZM696.08 893C712.14 893 725.16 906.026 725.16 922.094L725.159 965.589 667 965.589 667 922.094C667 906.026 680.019 893 696.08 893Z" fill="#595959" fill-rule="evenodd" fill-opacity="1"/></g></g></svg>