<svg width="3378" height="641" xmlns="http://www.w3.org/2000/svg" xmlns:xlink="http://www.w3.org/1999/xlink" xml:space="preserve" overflow="hidden"><defs><clipPath id="clip0"><rect x="563" y="889" width="3378" height="641"/></clipPath><clipPath id="clip1"><rect x="563" y="889" width="3378" height="641"/></clipPath></defs><g clip-path="url(#clip0)" transform="translate(-563 -889)"><g clip-path="url(#clip1)"><path d="M565 1114 1128 1114 1128 1435.18C1128 1486.99 1085.99 1529 1034.16 1529L658.835 1529C607.012 1529 565 1486.99 565 1435.18Z" fill="#FFFFFF" fill-rule="evenodd" fill-opacity="1"/><path d="M658.835 966 666.787 966 666.787 990.331C666.787 1006.41 679.816 1019.44 695.888 1019.44L695.888 1019.44C711.96 1019.44 724.989 1006.41 724.989 990.331L724.989 966 966.843 966 966.843 990.331C966.843 1006.41 979.872 1019.44 995.944 1019.44L995.943 1019.44C1012.02 1019.44 1025.04 1006.41 1025.04 990.331L1025.04 966 1034.16 966C1085.99 966 1128 1008.03 1128 1059.87L1128 1114 565 1114 565 1059.87C565 1008.03 607.012 966 658.835 966Z" fill="#FF427D" fill-rule="evenodd" fill-opacity="1"/><path d="M966.84 965.589 1025 965.589 1025 989.906C1025 1005.97 1011.98 1019 995.92 1019L995.92 1019C979.86 1019 966.84 1005.97 966.84 989.905ZM667 965.589 725.159 965.589 725.159 989.906C725.159 1005.97 712.14 1019 696.08 1019L696.08 1019C680.019 1019 667 1005.97 667 989.905ZM995.92 893C1011.98 893 1025 906.026 1025 922.094L1025 965.589 966.84 965.589 966.84 922.094C966.84 906.026 979.86 893 995.92 893ZM696.08 893C712.14 893 725.16 906.026 725.16 922.094L725.159 965.589 667 965.589 667 922.094C667 906.026 680.019 893 696.08 893Z" fill="#595959" fill-rule="evenodd" fill-opacity="1"/><path d="M3167.08 1230.45C3158.29 1230.45 3150.07 1231.62 3142.45 1233.97 3134.83 1236.31 3128.23 1240.26 3122.66 1245.83 3117.08 1251.4 3112.69 1258.87 3109.46 1268.24 3108.65 1270.59 3107.95 1273.09 3107.34 1275.74L3106.88 1278.35 3222.07 1278.35 3222.07 1275.27C3221.48 1266.78 3218.48 1259.16 3213.05 1252.42 3207.63 1245.68 3200.88 1240.34 3192.82 1236.38 3184.75 1232.43 3176.18 1230.45 3167.08 1230.45ZM2828.16 1186.51C2833.73 1186.51 2838.86 1187.9 2843.55 1190.68 2848.24 1193.46 2851.76 1197.64 2854.11 1203.21L2914.88 1341.96 2975.08 1203.65C2980.06 1191.93 2987.83 1186.36 2998.39 1186.95 3005.72 1186.95 3011.66 1189.22 3016.2 1193.76 3020.75 1198.3 3023.02 1203.94 3023.02 1210.68 3023.02 1212.73 3022.66 1214.92 3021.92 1217.27 3021.19 1219.61 3020.38 1221.81 3019.5 1223.86L2937.25 1404.91C2932.55 1415.45 2925.08 1421.02 2914.81 1421.61 2909.24 1422.48 2903.89 1421.46 2898.76 1418.53 2893.62 1415.6 2889.74 1411.06 2887.1 1404.91L2805.28 1223.86C2804.7 1222.39 2804.04 1220.49 2803.3 1218.15 2802.57 1215.8 2802.2 1213.02 2802.2 1209.8 2802.2 1204.52 2804.55 1199.32 2809.24 1194.2 2813.93 1189.07 2820.24 1186.51 2828.16 1186.51ZM3849.94 1182.11C3859.04 1182.11 3868.57 1183.21 3878.54 1185.41 3888.51 1187.61 3898.04 1191.12 3907.13 1195.96 3916.22 1200.79 3923.84 1207.16 3930 1215.07 3933.23 1219.46 3935.13 1224.74 3935.72 1230.89 3936.31 1237.04 3933.52 1242.61 3927.36 1247.59 3922.96 1251.1 3917.83 1252.64 3911.97 1252.2 3906.1 1251.76 3901.26 1249.79 3897.45 1246.27 3892.47 1239.83 3885.79 1234.7 3877.44 1230.89 3869.08 1227.08 3859.48 1225.18 3848.62 1225.18 3844.23 1225.18 3839.46 1225.69 3834.33 1226.72 3829.2 1227.74 3824.72 1229.94 3820.91 1233.31 3817.1 1236.68 3815.19 1242.02 3815.19 1249.35 3815.19 1256.08 3817.39 1261.43 3821.79 1265.39 3826.19 1269.34 3832.13 1272.56 3839.61 1275.05 3847.09 1277.54 3855.08 1279.96 3863.58 1282.3 3872.38 1284.65 3881.32 1287.43 3890.41 1290.65 3899.5 1293.88 3907.86 1298.12 3915.49 1303.4 3923.11 1308.67 3929.27 1315.48 3933.96 1323.83 3938.65 1332.18 3941 1342.8 3941 1355.69 3941 1370.63 3936.6 1383.37 3927.8 1393.92 3919.01 1404.47 3908.01 1412.45 3894.81 1417.87 3881.62 1423.29 3868.13 1426 3854.34 1426 3837.04 1426 3819.74 1423 3802.44 1416.99 3785.14 1410.99 3770.77 1400.37 3759.33 1385.13 3756.4 1381.03 3755.08 1375.76 3755.37 1369.31 3755.66 1362.87 3759.48 1357.3 3766.81 1352.61 3771.5 1349.68 3776.48 1348.44 3781.76 1348.88 3787.04 1349.32 3792.17 1352.03 3797.16 1357.01 3805.66 1365.5 3814.61 1372.1 3823.99 1376.78 3833.38 1381.47 3845.11 1383.81 3859.18 1383.81 3863.58 1383.52 3868.42 1382.86 3873.7 1381.84 3878.98 1380.81 3883.6 1378.47 3887.55 1374.81 3891.51 1371.14 3893.49 1365.5 3893.49 1357.89 3893.49 1351.44 3891.29 1346.32 3886.89 1342.51 3882.5 1338.7 3876.7 1335.48 3869.52 1332.84 3862.33 1330.2 3854.34 1327.71 3845.55 1325.37 3836.45 1322.73 3827.14 1319.8 3817.61 1316.58 3808.08 1313.36 3799.36 1309.18 3791.44 1304.06 3783.52 1298.93 3777.07 1292.12 3772.09 1283.62 3767.1 1275.13 3764.61 1264.43 3764.61 1251.54 3764.61 1236.9 3768.71 1224.45 3776.92 1214.19 3785.14 1203.94 3795.77 1196.03 3808.82 1190.46 3821.87 1184.9 3835.58 1182.11 3849.94 1182.11ZM3448.58 1182.11C3470.28 1182.11 3486.78 1186.65 3498.07 1195.74 3509.36 1204.82 3517.13 1216.9 3521.38 1231.99 3525.63 1247.08 3527.76 1263.85 3527.76 1282.3L3527.76 1394.8C3527.76 1402.42 3525.27 1408.79 3520.28 1413.92 3515.3 1419.04 3508.99 1421.61 3501.37 1421.61 3493.74 1421.61 3487.44 1419.04 3482.45 1413.92 3477.47 1408.79 3474.97 1402.42 3474.97 1394.8L3474.97 1282.3C3474.97 1272.64 3473.73 1263.92 3471.23 1256.16 3468.74 1248.39 3464.27 1242.17 3457.82 1237.48 3451.37 1232.79 3442.13 1230.45 3430.11 1230.45 3418.38 1230.45 3408.48 1232.79 3400.41 1237.48 3392.35 1242.17 3386.19 1248.39 3381.94 1256.16 3377.69 1263.92 3375.56 1272.64 3375.56 1282.3L3375.56 1394.8C3375.56 1402.42 3373.07 1408.79 3368.08 1413.92 3363.1 1419.04 3356.79 1421.61 3349.17 1421.61 3341.54 1421.61 3335.24 1419.04 3330.25 1413.92 3325.27 1408.79 3322.77 1402.42 3322.77 1394.8L3322.77 1213.31C3322.77 1205.7 3325.27 1199.32 3330.25 1194.2 3335.24 1189.07 3341.54 1186.51 3349.17 1186.51 3356.79 1186.51 3363.1 1189.07 3368.08 1194.2 3373.07 1199.32 3375.56 1205.7 3375.56 1213.31L3375.56 1221.64 3380.4 1214.85C3385.38 1209.14 3391.25 1203.79 3397.99 1198.81 3404.74 1193.83 3412.36 1189.8 3420.87 1186.73 3429.37 1183.65 3438.61 1182.11 3448.58 1182.11ZM3167.08 1182.11C3182.04 1182.11 3196.19 1185.19 3209.53 1191.34 3222.88 1197.49 3234.68 1205.92 3244.94 1216.61 3255.21 1227.3 3263.34 1239.68 3269.36 1253.74 3275.37 1267.8 3278.37 1282.74 3278.37 1298.56 3278.08 1305.59 3275.29 1311.31 3270.02 1315.7 3264.74 1320.1 3258.58 1322.29 3251.54 1322.29L3106.48 1322.29 3107.09 1325.75C3108.74 1332.45 3111.22 1338.55 3114.52 1344.04 3121.12 1355.03 3129.62 1363.38 3140.03 1369.09 3150.44 1374.81 3161.51 1377.66 3173.24 1377.66 3184.09 1377.66 3192.74 1376.78 3199.2 1375.03 3205.65 1373.27 3210.85 1371.14 3214.81 1368.65 3218.77 1366.16 3222.36 1364.04 3225.59 1362.28 3230.87 1359.65 3235.85 1358.33 3240.54 1358.33 3247 1358.33 3252.35 1360.52 3256.6 1364.92 3260.85 1369.31 3262.98 1374.44 3262.98 1380.3 3262.98 1388.21 3258.87 1395.39 3250.66 1401.83 3243.04 1408.28 3232.33 1413.92 3218.55 1418.75 3204.77 1423.58 3190.54 1426 3175.88 1426 3150.95 1426 3129.33 1420.8 3111 1410.4 3092.67 1400 3078.59 1385.86 3068.77 1367.99 3058.95 1350.12 3054.03 1329.91 3054.03 1307.35 3054.03 1280.99 3059.39 1258.5 3070.09 1239.9 3080.79 1221.3 3094.8 1207.01 3112.1 1197.05 3129.4 1187.09 3147.73 1182.11 3167.08 1182.11ZM3633.66 1135.97C3641.29 1135.97 3647.52 1138.54 3652.36 1143.66 3657.19 1148.79 3659.61 1155.16 3659.61 1162.78L3659.61 1190.9 3690.84 1190.9C3697.88 1190.9 3703.75 1193.25 3708.44 1197.93 3713.13 1202.62 3715.48 1208.48 3715.48 1215.51 3715.48 1222.25 3713.13 1227.89 3708.44 1232.43 3703.75 1236.97 3697.88 1239.24 3690.84 1239.24L3659.61 1239.24 3659.61 1358.33C3659.61 1362.43 3660.42 1365.8 3662.03 1368.43 3663.65 1371.07 3665.85 1372.97 3668.63 1374.15 3671.42 1375.32 3674.42 1375.9 3677.65 1375.9 3681.17 1375.9 3684.39 1375.25 3687.33 1373.93 3690.26 1372.61 3693.63 1371.95 3697.44 1371.95 3701.55 1371.95 3705.29 1373.85 3708.66 1377.66 3712.03 1381.47 3713.72 1386.74 3713.72 1393.48 3713.72 1401.68 3709.25 1408.42 3700.3 1413.7 3691.36 1418.97 3681.75 1421.61 3671.49 1421.61 3665.33 1421.61 3658.51 1421.09 3651.04 1420.07 3643.56 1419.04 3636.52 1416.55 3629.92 1412.6 3623.32 1408.64 3617.82 1402.56 3613.43 1394.36 3609.03 1386.16 3606.83 1374.88 3606.83 1360.52L3606.83 1239.24 3586.59 1239.24C3579.55 1239.24 3573.69 1236.9 3569 1232.21 3564.31 1227.52 3561.96 1221.66 3561.96 1214.63 3561.96 1207.89 3564.31 1202.25 3569 1197.71 3573.69 1193.17 3579.55 1190.9 3586.59 1190.9L3606.83 1190.9 3606.83 1162.78C3606.83 1155.16 3609.39 1148.79 3614.53 1143.66 3619.66 1138.54 3626.04 1135.97 3633.66 1135.97ZM2604.83 1114 2752.19 1114C2759.82 1114 2766.2 1116.42 2771.33 1121.25 2776.46 1126.08 2779.03 1132.31 2779.03 1139.93 2779.03 1147.25 2776.46 1153.18 2771.33 1157.72 2766.2 1162.26 2759.82 1164.54 2752.19 1164.54L2632.99 1164.54 2632.99 1239.24 2732.4 1239.24C2740.02 1239.24 2746.4 1241.66 2751.53 1246.49 2756.67 1251.32 2759.23 1257.55 2759.23 1265.17 2759.23 1272.49 2756.67 1278.42 2751.53 1282.96 2746.4 1287.5 2740.02 1289.77 2732.4 1289.77L2632.99 1289.77 2632.99 1371.07 2752.19 1371.07C2759.82 1371.07 2766.2 1373.63 2771.33 1378.76 2776.46 1383.89 2779.03 1389.82 2779.03 1396.56 2779.03 1403.88 2776.46 1409.89 2771.33 1414.57 2766.2 1419.26 2759.82 1421.61 2752.19 1421.61L2604.83 1421.61C2597.21 1421.61 2590.83 1419.04 2585.7 1413.92 2580.57 1408.79 2578 1402.42 2578 1394.8L2578 1140.81C2578 1133.19 2580.57 1126.82 2585.7 1121.69 2590.83 1116.56 2597.21 1114 2604.83 1114Z" fill="#FFFFFF" fill-rule="evenodd" fill-opacity="1"/><path d="M2027.76 1230.08C2015.14 1230.08 2003.99 1233.31 1994.31 1239.76 1984.63 1246.22 1977.08 1255.03 1971.65 1266.18 1966.22 1277.33 1963.51 1289.95 1963.51 1304.04 1963.51 1317.84 1966.22 1330.31 1971.65 1341.47 1977.08 1352.62 1984.63 1361.43 1994.31 1367.88 2003.99 1374.34 2015.14 1377.57 2027.76 1377.57 2040.66 1377.57 2051.96 1374.34 2061.64 1367.88 2071.32 1361.43 2078.87 1352.62 2084.3 1341.47 2089.72 1330.31 2092.44 1317.84 2092.44 1304.04 2092.44 1289.95 2089.72 1277.33 2084.3 1266.18 2078.87 1255.03 2071.32 1246.22 2061.64 1239.76 2051.96 1233.31 2040.66 1230.08 2027.76 1230.08ZM2324.69 1181.65C2333.49 1181.65 2340.9 1184.14 2346.91 1189.13 2352.92 1194.12 2355.93 1199.99 2355.93 1206.74 2355.93 1216.43 2353.44 1223.4 2348.45 1227.65 2343.46 1231.91 2338.03 1234.04 2332.17 1234.04 2326.59 1234.04 2321.53 1233.01 2316.99 1230.96 2312.44 1228.9 2307.23 1227.87 2301.37 1227.87 2296.09 1227.87 2290.73 1229.12 2285.31 1231.62 2279.88 1234.11 2274.89 1238 2270.34 1243.28 2265.8 1248.57 2262.13 1255.1 2259.34 1262.88 2256.56 1270.66 2255.16 1279.83 2255.16 1290.39L2255.16 1394.74C2255.16 1402.37 2252.67 1408.76 2247.68 1413.89 2242.7 1419.03 2236.39 1421.6 2228.76 1421.6 2221.14 1421.6 2214.83 1419.03 2209.84 1413.89 2204.85 1408.76 2202.36 1402.37 2202.36 1394.74L2202.36 1212.91C2202.36 1205.27 2204.85 1198.89 2209.84 1193.75 2214.83 1188.62 2221.14 1186.05 2228.76 1186.05 2236.39 1186.05 2242.7 1188.62 2247.68 1193.75 2252.67 1198.89 2255.16 1205.27 2255.16 1212.91L2255.16 1219.27 2257.64 1214.83C2259.73 1211.71 2262.06 1208.8 2264.62 1206.08 2269.76 1200.65 2275.55 1196.1 2282.01 1192.43 2288.46 1188.76 2295.35 1186.05 2302.69 1184.29 2310.02 1182.53 2317.35 1181.65 2324.69 1181.65ZM2019.39 1181.65C2032.01 1181.65 2043.6 1183.55 2054.16 1187.37 2064.72 1191.19 2073.88 1196.03 2081.66 1201.9L2090.24 1209.25 2090.24 1208.5C2090.24 1200.87 2092.73 1194.49 2097.72 1189.35 2102.71 1184.21 2109.01 1181.65 2116.64 1181.65 2124.27 1181.65 2130.57 1184.14 2135.56 1189.13 2140.55 1194.12 2143.04 1200.58 2143.04 1208.5L2143.04 1394.74C2143.04 1402.37 2140.55 1408.76 2135.56 1413.89 2130.57 1419.03 2124.27 1421.6 2116.64 1421.6 2109.01 1421.6 2102.71 1419.03 2097.72 1413.89 2092.73 1408.76 2090.24 1402.37 2090.24 1394.74L2090.24 1394.38 2077.04 1407.07C2070 1412.35 2061.71 1416.83 2052.18 1420.5 2042.64 1424.17 2032.3 1426 2021.15 1426 2000.91 1426 1982.58 1420.79 1966.15 1410.37 1949.72 1399.95 1936.74 1385.57 1927.21 1367.22 1917.68 1348.88 1912.91 1327.82 1912.91 1304.04 1912.91 1279.97 1917.68 1258.77 1927.21 1240.42 1936.74 1222.08 1949.58 1207.7 1965.71 1197.28 1981.85 1186.86 1999.74 1181.65 2019.39 1181.65ZM1641.91 1181.65C1665.38 1181.65 1682.69 1187.3 1693.83 1198.6 1702.19 1207.07 1708.41 1217.4 1712.48 1229.59L1712.64 1230.2 1718.58 1220.89C1721.3 1217.25 1724.49 1213.49 1728.15 1209.6 1735.49 1201.83 1744.36 1195.22 1754.78 1189.79 1765.19 1184.36 1776.85 1181.65 1789.76 1181.65 1810.88 1181.65 1826.94 1186.2 1837.94 1195.29 1848.94 1204.39 1856.49 1216.5 1860.6 1231.62 1864.71 1246.73 1866.76 1263.54 1866.76 1282.03L1866.76 1394.74C1866.76 1402.37 1864.27 1408.76 1859.28 1413.89 1854.29 1419.03 1847.99 1421.6 1840.36 1421.6 1832.73 1421.6 1826.43 1419.03 1821.44 1413.89 1816.45 1408.76 1813.96 1402.37 1813.96 1394.74L1813.96 1282.03C1813.96 1272.34 1812.79 1263.61 1810.44 1255.83 1808.09 1248.05 1803.84 1241.82 1797.68 1237.12 1791.52 1232.42 1782.72 1230.08 1771.28 1230.08 1760.13 1230.08 1750.6 1232.42 1742.68 1237.12 1734.76 1241.82 1728.81 1248.05 1724.85 1255.83 1720.89 1263.61 1718.91 1272.34 1718.91 1282.03L1718.91 1394.74C1718.91 1402.37 1716.42 1408.76 1711.43 1413.89 1706.45 1419.03 1700.14 1421.6 1692.51 1421.6 1684.89 1421.6 1678.58 1419.03 1673.59 1413.89 1668.6 1408.76 1666.11 1402.37 1666.11 1394.74L1666.11 1282.03C1666.11 1272.34 1664.94 1263.61 1662.59 1255.83 1660.24 1248.05 1655.99 1241.82 1649.83 1237.12 1643.67 1232.42 1634.87 1230.08 1623.43 1230.08 1612.28 1230.08 1602.75 1232.42 1594.83 1237.12 1586.91 1241.82 1580.97 1248.05 1577.01 1255.83 1573.05 1263.61 1571.07 1272.34 1571.07 1282.03L1571.07 1394.74C1571.07 1402.37 1568.57 1408.76 1563.59 1413.89 1558.6 1419.03 1552.29 1421.6 1544.67 1421.6 1537.04 1421.6 1530.73 1419.03 1525.74 1413.89 1520.76 1408.76 1518.26 1402.37 1518.26 1394.74L1518.26 1212.91C1518.26 1205.27 1520.76 1198.89 1525.74 1193.75 1530.73 1188.62 1537.04 1186.05 1544.67 1186.05 1552.29 1186.05 1558.6 1188.62 1563.59 1193.75 1568.57 1198.89 1571.07 1205.27 1571.07 1212.91L1571.07 1220.87 1575.47 1214.45C1580.16 1208.72 1585.88 1203.37 1592.63 1198.38 1599.38 1193.39 1606.86 1189.35 1615.07 1186.27 1623.28 1183.19 1632.23 1181.65 1641.91 1181.65ZM2441.16 1135.42C2448.78 1135.42 2455.02 1137.98 2459.86 1143.12 2464.7 1148.26 2467.12 1154.64 2467.12 1162.27L2467.12 1190.45 2498.36 1190.45C2505.4 1190.45 2511.27 1192.8 2515.96 1197.5 2520.65 1202.19 2523 1208.06 2523 1215.11 2523 1221.86 2520.65 1227.51 2515.96 1232.06 2511.27 1236.61 2505.4 1238.88 2498.36 1238.88L2467.12 1238.88 2467.12 1358.2C2467.12 1362.31 2467.92 1365.68 2469.54 1368.32 2471.15 1370.97 2473.35 1372.87 2476.14 1374.05 2478.92 1375.22 2481.93 1375.81 2485.16 1375.81 2488.68 1375.81 2491.91 1375.15 2494.84 1373.83 2497.77 1372.51 2501.15 1371.85 2504.96 1371.85 2509.07 1371.85 2512.81 1373.75 2516.18 1377.57 2519.55 1381.39 2521.24 1386.67 2521.24 1393.42 2521.24 1401.64 2516.77 1408.39 2507.82 1413.67 2498.87 1418.96 2489.27 1421.6 2479 1421.6 2472.84 1421.6 2466.02 1421.08 2458.54 1420.06 2451.06 1419.03 2444.02 1416.53 2437.42 1412.57 2430.82 1408.61 2425.32 1402.52 2420.92 1394.3 2416.51 1386.08 2414.31 1374.78 2414.31 1360.4L2414.31 1238.88 2394.07 1238.88C2387.03 1238.88 2381.17 1236.53 2376.47 1231.84 2371.78 1227.14 2369.43 1221.27 2369.43 1214.23 2369.43 1207.48 2371.78 1201.83 2376.47 1197.28 2381.17 1192.73 2387.03 1190.45 2394.07 1190.45L2414.31 1190.45 2414.31 1162.27C2414.31 1154.64 2416.88 1148.26 2422.02 1143.12 2427.15 1137.98 2433.53 1135.42 2441.16 1135.42ZM1360.85 1109C1379.91 1109 1397.59 1111.86 1413.87 1117.59 1430.15 1123.31 1443.42 1130.57 1453.69 1139.38 1462.2 1146.13 1466.45 1153.91 1466.45 1162.71 1466.45 1169.17 1463.96 1175.04 1458.97 1180.33 1453.98 1185.61 1448.12 1188.25 1441.37 1188.25 1436.97 1188.25 1433.01 1186.93 1429.49 1184.29 1424.8 1180.18 1418.49 1176.29 1410.57 1172.62 1402.65 1168.95 1394.29 1165.87 1385.49 1163.37 1376.69 1160.88 1368.47 1159.63 1360.85 1159.63 1348.23 1159.63 1337.6 1161.25 1328.94 1164.47 1320.29 1167.7 1313.76 1172.11 1309.36 1177.68 1304.96 1183.26 1302.76 1189.72 1302.76 1197.06 1302.76 1205.86 1305.33 1213.13 1310.46 1218.85 1315.6 1224.57 1323 1229.12 1332.68 1232.5 1342.37 1235.87 1353.95 1238.88 1367.45 1241.52 1385.05 1244.75 1400.52 1248.57 1413.87 1252.97 1427.22 1257.37 1438.29 1263.02 1447.09 1269.92 1455.89 1276.82 1462.49 1285.48 1466.89 1295.9 1471.29 1306.32 1473.49 1319.01 1473.49 1333.98 1473.49 1353.06 1468.21 1369.5 1457.65 1383.29 1447.09 1397.09 1433.23 1407.65 1416.07 1414.99 1398.91 1422.33 1380.35 1426 1360.41 1426 1339.87 1426 1321.39 1423.43 1304.96 1418.29 1288.54 1413.16 1272.84 1404.13 1257.88 1391.22 1254.07 1387.99 1251.13 1384.32 1249.08 1380.21 1247.03 1376.1 1246 1371.99 1246 1367.88 1246 1361.13 1248.42 1355.19 1253.26 1350.05 1258.1 1344.92 1264.19 1342.35 1271.52 1342.35 1277.1 1342.35 1282.08 1344.11 1286.48 1347.63 1297.63 1356.73 1308.7 1363.63 1319.7 1368.32 1330.7 1373.02 1344.27 1375.37 1360.41 1375.37 1371.26 1375.37 1381.23 1373.68 1390.33 1370.3 1399.42 1366.93 1406.76 1362.38 1412.33 1356.66 1417.9 1350.93 1420.69 1344.4 1420.69 1337.06 1420.69 1328.26 1418.05 1320.77 1412.77 1314.61 1407.49 1308.45 1399.42 1303.24 1388.57 1298.98 1377.71 1294.72 1363.93 1291.42 1347.21 1289.07 1331.36 1286.73 1317.43 1283.13 1305.4 1278.29 1293.38 1273.44 1283.33 1267.28 1275.26 1259.8 1267.19 1252.31 1261.11 1243.5 1257 1233.38 1252.89 1223.25 1250.84 1211.88 1250.84 1199.26 1250.84 1180.18 1255.75 1163.89 1265.58 1150.39 1275.41 1136.88 1288.68 1126.61 1305.4 1119.57 1322.12 1112.52 1340.6 1109 1360.85 1109Z" fill="#FF427D" fill-rule="evenodd" fill-opacity="1"/></g></g></svg>